<svg width="500" height="509" viewBox="0 0 500 509" fill="none" xmlns="http://www.w3.org/2000/svg">
<circle cx="250" cy="250" r="250" fill="#2B2B2B"/>
<path d="M21.0001 494.426H151.074V370.032H21.0001V494.426Z" fill="#192941"/>
<path d="M21.0001 383.188H151.074V370.032H21.0001V383.188Z" fill="#2C4666"/>
<path d="M122.956 376.758C122.956 378.09 121.903 379.171 120.604 379.171C119.303 379.171 118.249 378.09 118.249 376.758C118.249 375.426 119.303 374.347 120.604 374.347C121.903 374.347 122.956 375.426 122.956 376.758Z" fill="#5C60B6"/>
<path d="M132.784 376.758C132.784 378.09 131.731 379.171 130.431 379.171C129.131 379.171 128.077 378.09 128.077 376.758C128.077 375.426 129.131 374.347 130.431 374.347C131.731 374.347 132.784 375.426 132.784 376.758Z" fill="#F8CF3E"/>
<path d="M141.909 377.012C141.909 378.344 140.856 379.424 139.556 379.424C138.256 379.424 137.203 378.344 137.203 377.012C137.203 375.68 138.256 374.601 139.556 374.601C140.856 374.601 141.909 375.68 141.909 377.012Z" fill="#F46B6F"/>
<path d="M62.5521 397.004H44.1295V395.418H62.5521V397.004Z" fill="#F46B6F"/>
<path d="M84.1747 397.004H65.7521V395.418H84.1747V397.004Z" fill="#F8CF3E"/>
<path d="M78.3946 405.55H49.828V403.964H78.3946V405.55Z" fill="#5C60B6"/>
<path d="M97.64 405.55H83.1187V403.964H97.64V405.55Z" fill="#F46B6F"/>
<path d="M72.284 414.097H59.7373V412.51H72.284V414.097Z" fill="#F8CF3E"/>
<path d="M121.16 414.097H79.5361V412.51H121.16V414.097Z" fill="#F8CF3E"/>
<path d="M117.052 422.642H69.4827V421.056H117.052V422.642Z" fill="#5C60B6"/>
<path d="M72.2294 431.189H57.5894V429.603H72.2294V431.189Z" fill="#F46B6F"/>
<path d="M93.1333 431.189H78.4933V429.603H93.1333V431.189Z" fill="#5C60B6"/>
<path d="M65.428 473.943H44.1295V475.529H65.428V473.943Z" fill="#F46B6F"/>
<path d="M94.1838 473.943H72.8866V475.529H94.1838V473.943Z" fill="#F8CF3E"/>
<path d="M122.167 473.943H100.869V475.529H122.167V473.943Z" fill="#F46B6F"/>
<path d="M91.4507 465.396H49.828V466.983H91.4507V465.396Z" fill="#5C60B6"/>
<path d="M139.563 465.396H97.9413V466.983H139.563V465.396Z" fill="#F46B6F"/>
<path d="M101.041 456.85H59.7373V458.436H101.041V456.85Z" fill="#F46B6F"/>
<path d="M116.139 456.85H104.643V458.436H116.139V456.85Z" fill="#F8CF3E"/>
<path d="M72.5894 448.303H57.04V449.889H72.5894V448.303Z" fill="#F8CF3E"/>
<path d="M96.3959 448.303H80.8467V449.889H96.3959V448.303Z" fill="#5C60B6"/>
<path d="M121.945 448.303H106.396V449.889H121.945V448.303Z" fill="#F46B6F"/>
<path d="M96.8681 439.756H75.0641V441.344H96.8681V439.756Z" fill="#F8CF3E"/>
<path d="M66.8387 439.756H45.036V441.344H66.8387V439.756Z" fill="#5C60B6"/>
<path d="M34.0533 395.924H32.072V393.893H34.0533V395.924Z" fill="#FBFDFE"/>
<path d="M34.0533 406.278H32.072V402.138H34.0533V406.278ZM34.0533 416.633H32.072V412.492H34.0533V416.633ZM34.0533 426.988H32.072V422.846H34.0533V426.988ZM34.0533 437.342H32.072V433.2H34.0533V437.342ZM34.0533 447.697H32.072V443.556H34.0533V447.697ZM34.0533 458.052H32.072V453.911H34.0533V458.052ZM34.0533 468.406H32.072V464.265H34.0533V468.406Z" fill="#FBFDFE"/>
<path d="M34.0533 476.651H32.072V474.619H34.0533V476.651Z" fill="#FBFDFE"/>
<path d="M305.661 358.698C284.55 346.901 290.307 289.868 290.307 289.868L258.691 291.956V289.875L255.309 290.916L251.927 289.875V291.956L220.311 289.868C220.311 289.868 226.068 346.901 204.957 358.698C183.847 370.497 59.1039 376.396 72.5386 508.143H251.927H258.691H438.079C451.514 376.396 326.771 370.497 305.661 358.698Z" fill="#F78E92"/>
<path d="M312.229 357.686C301.688 351.797 297.806 334.709 296.564 318.975C287.286 322.568 268.736 324.664 256.827 324.664C242.531 324.664 224.44 321.655 214.218 316.644C213.18 332.985 209.455 351.504 198.392 357.686C177.137 369.564 56.5305 375.503 70.0548 508.143H250.657H257.469H438.074C451.599 375.503 333.481 369.564 312.229 357.686Z" fill="black"/>
<path d="M215.878 343.986C241.13 340.131 266.367 336.15 291.586 332.049C288.04 312.385 290.307 289.868 290.307 289.868L258.691 291.956V289.875L255.309 290.916L251.927 289.875V291.956L220.309 289.868C220.309 289.868 223.644 323.006 215.878 343.986Z" fill="#D86C5C"/>
<path d="M255.14 388.42C284.16 388.42 310.188 378.535 327.976 362.89C321.51 361.011 316.378 359.409 313.294 357.686C302.754 351.797 298.871 334.709 297.629 318.975C288.351 322.568 269.802 324.664 257.892 324.664C243.597 324.664 225.505 321.655 215.284 316.644C214.246 332.985 210.52 351.504 199.454 357.686C196.1 359.562 190.261 361.291 182.869 363.393C200.639 378.75 226.429 388.42 255.14 388.42Z" fill="black"/>
<path d="M122.129 494.143L141.051 475.833L158.876 494.094L162.102 490.789L141.141 469.312L118.998 490.743L122.129 494.143Z" fill="#FDB827"/>
<path d="M352.959 493.482L374.771 475.7L392.723 494.094L395.948 490.789L375.117 469.445L350.116 489.825L352.959 493.482Z" fill="#FDB827"/>
<path d="M314.397 493.561L334.892 475.749L352.797 494.094L356.022 490.789L335.146 469.396L311.445 489.996L314.397 493.561Z" fill="#FDB827"/>
<path d="M277.268 494.143L296.188 475.833L314.013 494.094L317.239 490.789L296.28 469.312L274.135 490.743L277.268 494.143Z" fill="#FDB827"/>
<path d="M236.424 493.814L257.405 475.672L276.92 493.643L279.968 490.164L257.497 469.473L233.482 490.241L236.424 493.814Z" fill="#FDB827"/>
<path d="M199.701 494.143L218.621 475.833L236.446 494.094L239.672 490.789L218.711 469.312L196.567 490.743L199.701 494.143Z" fill="#FDB827"/>
<path d="M159.2 493.804L179.845 475.682L199.074 493.393L202.122 489.915L179.917 469.463L156.231 490.254L159.2 493.804Z" fill="#FDB827"/>
<path d="M121.417 473.818L141.071 454.799L159.608 473.793L161.368 471.99L141.121 451.245L119.71 471.964L121.417 473.818Z" fill="#FDB827"/>
<path d="M352.312 473.102L374.848 454.728L393.455 473.793L395.217 471.99L375.037 451.316L350.763 471.105L352.312 473.102Z" fill="#FDB827"/>
<path d="M313.725 473.201L334.949 454.753L353.531 473.793L355.291 471.99L335.086 451.29L312.114 471.255L313.725 473.201Z" fill="#FDB827"/>
<path d="M276.556 473.818L296.208 454.799L314.745 473.793L316.507 471.99L296.258 451.245L274.846 471.964L276.556 473.818Z" fill="#FDB827"/>
<path d="M235.754 473.451L257.424 454.713L277.611 473.301L279.276 471.403L257.477 451.331L234.149 471.503L235.754 473.451Z" fill="#FDB827"/>
<path d="M198.989 473.818L218.641 454.799L237.178 473.793L238.937 471.99L218.691 451.245L197.279 471.964L198.989 473.818Z" fill="#FDB827"/>
<path d="M158.525 473.446L179.86 454.718L199.765 473.051L201.43 471.156L179.9 451.326L156.905 471.508L158.525 473.446Z" fill="#FDB827"/>
<path d="M126.785 460.461C126.785 433.422 123.597 408.668 118.313 389.486C88.4423 409.349 63.5016 443.872 70.0547 508.143H123.246C125.514 493.712 126.785 477.539 126.785 460.461Z" fill="white"/>
<path d="M389.417 388.438C383.957 407.762 380.647 432.922 380.647 460.461C380.647 477.539 381.919 493.712 384.186 508.143H438.074C444.744 442.714 419.381 408.127 389.417 388.438Z" fill="white"/>
<path d="M193.494 206.387C187.274 186.616 172.545 191.193 171.166 191.67C169.72 191.843 154.496 194.159 157.127 214.759C159.772 235.479 171.507 246.709 182.508 243.409C193.832 241.571 199.751 226.278 193.494 206.387Z" fill="#D86C5C"/>
<path d="M317.692 206.387C323.911 186.616 338.64 191.193 340.019 191.67C341.465 191.843 356.689 194.159 354.059 214.759C351.413 235.479 339.681 246.709 328.677 243.409C317.353 241.571 311.435 226.278 317.692 206.387Z" fill="#D86C5C"/>
<path d="M178.404 176.436C186.112 89.7544 250.426 94.6098 256.491 95.2626C262.557 94.6098 326.871 89.7544 334.579 176.436C342.331 263.632 304.426 320.579 256.491 317.447C208.556 320.579 170.651 263.632 178.404 176.436Z" fill="#F6826F"/>
<path d="M175.318 115.557C175.318 115.557 157.896 127.032 170.34 166.559L177.806 211.186L184.029 212.461C184.029 212.461 181.54 144.883 202.695 129.582C223.85 114.281 175.318 115.557 175.318 115.557Z" fill="black"/>
<path d="M308.471 121.932C308.471 121.932 225.095 171.659 180.295 132.132C135.496 92.6054 182.784 72.2045 201.451 74.7546C201.451 74.7546 195.229 53.0785 220.117 50.5284C245.005 47.9783 240.028 73.4795 277.36 73.4795C314.693 73.4795 333.359 76.0296 329.626 107.906C329.626 107.906 348.292 96.4306 354.514 118.107C360.736 139.783 337.092 211.186 337.092 211.186L334.604 222.662H328.381V161.459C328.381 161.459 304.738 169.109 308.471 121.932Z" fill="black"/>
<path d="M354.514 118.107C348.292 96.4307 329.626 107.906 329.626 107.906C331.776 89.5505 326.485 80.9285 314.493 76.9095C311.995 95.2831 306.231 113.032 295.872 128.537C303.694 124.768 308.47 121.932 308.47 121.932C304.737 169.109 328.381 161.459 328.381 161.459V222.662H334.603L337.092 211.186C337.092 211.186 360.736 139.783 354.514 118.107Z" fill="black"/>
<path d="M267.582 186.6C268.652 190.576 269.476 194.582 270.22 198.599C270.956 202.613 271.579 206.642 272.134 210.679C272.428 212.696 272.634 214.723 272.888 216.743C273.147 218.763 273.343 220.79 273.532 222.82C273.948 226.869 274.239 230.937 274.473 235.009L274.538 236.106L273.766 236.593C271.233 238.194 268.662 239.737 266.068 241.247C263.453 242.723 260.844 244.213 258.122 245.529C260.302 243.402 262.596 241.446 264.884 239.477C267.193 237.544 269.525 235.644 271.895 233.801L271.188 235.382C270.546 231.355 269.964 227.323 269.506 223.276C269.257 221.254 269.015 219.232 268.839 217.202C268.654 215.172 268.42 213.15 268.279 211.117C267.957 207.052 267.704 202.982 267.567 198.9C267.435 194.814 267.385 190.721 267.582 186.6Z" fill="#E07375"/>
<path d="M289.279 261.1C273.968 276.349 248.032 275.505 228.387 261.916L289.279 261.1Z" fill="white"/>
<path d="M317.142 180.174C317.142 180.174 316.472 179.794 315.3 179.129C314.73 178.81 314.038 178.422 313.247 177.976C312.47 177.555 311.594 177.081 310.636 176.563C309.648 176.13 308.66 175.546 307.555 175.102C307.02 174.857 306.47 174.607 305.907 174.35C305.342 174.138 304.762 173.921 304.172 173.702C303.028 173.182 301.778 172.99 300.588 172.559C299.356 172.429 298.144 171.947 296.912 171.998L295.078 171.845C294.476 171.919 293.871 171.94 293.266 171.973C292.042 171.922 290.904 172.389 289.722 172.536C288.545 172.728 287.487 173.312 286.38 173.613L285.561 173.873L284.817 174.258C284.311 174.5 283.821 174.735 283.351 174.959C282.417 175.433 281.459 175.778 280.737 176.293C279.996 176.77 279.291 177.145 278.712 177.468C277.549 178.114 276.805 178.45 276.805 178.45C276.805 178.45 277.099 177.726 277.756 176.512C278.087 175.91 278.485 175.155 279.01 174.339C279.473 173.462 280.207 172.661 281.041 171.792C281.902 170.963 282.679 169.815 283.898 169.091C285.088 168.347 286.265 167.337 287.744 166.776C288.473 166.472 289.234 166.199 290.008 165.921C290.768 165.587 291.586 165.445 292.425 165.348C293.259 165.23 294.103 165.098 294.954 165.016C295.8 165.026 296.654 165.09 297.505 165.139C299.232 165.174 300.827 165.761 302.428 166.159C303.197 166.444 303.931 166.783 304.66 167.11C305.399 167.413 306.094 167.768 306.728 168.201C307.373 168.612 308.015 168.994 308.617 169.41C309.18 169.866 309.732 170.313 310.27 170.749C311.358 171.588 312.182 172.621 313.008 173.465C314.556 175.273 315.624 176.935 316.253 178.177C316.908 179.401 317.142 180.174 317.142 180.174Z" fill="#29202E"/>
<path d="M237.028 180.174C237.028 180.174 236.359 179.794 235.187 179.129C234.617 178.81 233.927 178.422 233.133 177.976C232.357 177.555 231.481 177.081 230.523 176.563C229.534 176.13 228.549 175.546 227.441 175.102C226.906 174.857 226.356 174.607 225.796 174.35C225.229 174.138 224.649 173.921 224.059 173.702C222.914 173.182 221.665 172.99 220.478 172.559C219.243 172.429 218.031 171.947 216.799 171.998L214.965 171.845C214.363 171.919 213.758 171.94 213.153 171.973C211.928 171.922 210.791 172.389 209.609 172.536C208.432 172.728 207.374 173.312 206.266 173.613L205.45 173.873L204.703 174.258C204.198 174.5 203.708 174.735 203.237 174.959C202.304 175.433 201.346 175.778 200.624 176.293C199.882 176.77 199.178 177.145 198.601 177.468C197.436 178.114 196.692 178.45 196.692 178.45C196.692 178.45 196.988 177.726 197.642 176.512C197.973 175.91 198.372 175.155 198.897 174.339C199.36 173.462 200.094 172.661 200.928 171.792C201.789 170.963 202.565 169.815 203.785 169.091C204.975 168.347 206.152 167.337 207.63 166.776C208.359 166.472 209.121 166.199 209.895 165.921C210.654 165.587 211.475 165.445 212.312 165.348C213.145 165.23 213.989 165.098 214.84 165.016C215.689 165.026 216.54 165.09 217.391 165.139C219.119 165.174 220.714 165.761 222.314 166.159C223.083 166.444 223.818 166.783 224.547 167.11C225.286 167.413 225.983 167.768 226.615 168.201C227.262 168.612 227.902 168.994 228.504 169.41C229.069 169.866 229.619 170.313 230.157 170.749C231.247 171.588 232.071 172.621 232.894 173.465C234.442 175.273 235.51 176.935 236.14 178.177C236.794 179.401 237.028 180.174 237.028 180.174Z" fill="#29202E"/>
<path d="M170.761 190.767L192.862 208.197L248.783 209.993L249.338 209.197L249.391 209.123C249.689 208.705 251.277 206.591 253.567 204.65C255.862 202.689 258.813 200.993 261.718 201.014C263.278 201.021 264.874 201.45 266.606 202.653C268.333 203.86 270.187 205.879 272.039 209.07L272.557 209.965H330.338L347.692 193.295L345.251 190.624L328.926 206.308H273.572V208.136L275.105 207.2C273.062 203.679 270.892 201.225 268.617 199.632C266.349 198.04 263.965 197.352 261.718 197.357C257.206 197.382 253.445 199.917 250.774 202.281C248.104 204.671 246.484 207.001 246.431 207.073L247.885 208.136L247.94 206.308L194.126 204.579L172.938 187.87L170.761 190.767Z" fill="#704E61"/>
<path d="M191.826 208.136C191.826 223.998 204.375 236.856 219.855 236.856C235.336 236.856 247.885 223.998 247.885 208.136C247.885 192.274 235.336 179.417 219.855 179.417C204.375 179.417 191.826 192.274 191.826 208.136Z" fill="#93C8D9"/>
<path d="M191.826 208.136H190.042C190.042 225.008 203.389 238.682 219.856 238.684C236.322 238.682 249.669 225.008 249.669 208.136C249.669 191.262 236.322 177.588 219.856 177.588C203.389 177.588 190.042 191.262 190.042 208.136H191.826H193.611C193.611 200.703 196.545 193.993 201.296 189.12C206.052 184.252 212.603 181.245 219.856 181.245C227.108 181.245 233.659 184.252 238.412 189.12C243.166 193.993 246.1 200.703 246.1 208.136C246.1 215.567 243.166 222.279 238.412 227.15C233.659 232.018 227.108 235.025 219.856 235.027C212.603 235.025 206.052 232.018 201.296 227.15C196.545 222.279 193.611 215.567 193.611 208.136H191.826Z" fill="#704E61"/>
<path d="M273.572 208.136C273.572 223.998 286.121 236.856 301.602 236.856C317.082 236.856 329.631 223.998 329.631 208.136C329.631 192.274 317.082 179.417 301.602 179.417C286.121 179.417 273.572 192.274 273.572 208.136Z" fill="#93C8D9"/>
<path d="M273.572 208.136H271.788C271.788 225.008 285.135 238.682 301.601 238.684C318.068 238.682 331.415 225.008 331.415 208.136C331.415 191.262 318.068 177.588 301.601 177.588C285.135 177.588 271.788 191.262 271.788 208.136H273.572H275.357C275.357 200.703 278.291 193.993 283.045 189.12C287.798 184.252 294.349 181.245 301.601 181.245C308.854 181.245 315.404 184.252 320.161 189.12C324.912 193.993 327.846 200.703 327.846 208.136C327.846 215.567 324.912 222.279 320.161 227.15C315.404 232.018 308.854 235.025 301.601 235.027C294.349 235.025 287.798 232.018 283.045 227.15C278.291 222.279 275.357 215.567 275.357 208.136H273.572Z" fill="#704E61"/>
<path d="M234.487 211.584C234.487 211.584 234.313 210.88 233.922 209.702C233.532 208.524 232.924 206.866 231.976 205.051C231.016 203.25 229.674 201.292 227.805 199.864C226.882 199.142 225.824 198.568 224.676 198.211C224.111 198.007 223.534 197.816 222.909 197.775C222.3 197.691 221.697 197.558 221.055 197.625C220.463 197.648 219.709 197.568 219.248 197.658C218.601 197.785 217.79 197.816 217.29 198.02C216.279 198.356 215.127 198.752 214.258 199.491C213.33 200.147 212.611 201.042 211.963 201.929C211.381 202.87 210.883 203.829 210.517 204.778C209.796 206.68 209.43 208.414 209.216 209.636C209.004 210.86 208.942 211.584 208.942 211.584C208.942 211.584 208.753 210.885 208.626 209.615C208.511 208.348 208.437 206.496 208.88 204.283C209.094 203.176 209.465 201.988 210.045 200.784C210.677 199.621 211.441 198.356 212.613 197.405C213.713 196.383 215.084 195.63 216.677 195.146C217.469 194.868 218.066 194.86 218.773 194.702C219.679 194.539 220.331 194.62 221.125 194.58C221.884 194.534 222.648 194.697 223.41 194.827C224.176 194.911 224.91 195.161 225.635 195.439C226.381 195.651 227.043 196.049 227.688 196.454C228.362 196.809 228.91 197.329 229.467 197.803C231.648 199.785 232.86 202.258 233.537 204.362C234.231 206.486 234.428 208.322 234.5 209.59C234.562 210.862 234.487 211.584 234.487 211.584Z" fill="#29202E"/>
<path d="M306.48 210.393C306.48 210.393 306.306 209.689 305.915 208.511C305.524 207.335 304.917 205.675 303.968 203.86C303.008 202.059 301.666 200.101 299.795 198.675C298.874 197.954 297.816 197.377 296.669 197.02C296.101 196.816 295.526 196.628 294.902 196.584C294.292 196.5 293.687 196.37 293.047 196.434C292.455 196.459 291.701 196.38 291.241 196.467C290.594 196.594 289.782 196.628 289.282 196.829C288.271 197.168 287.119 197.561 286.25 198.303C285.32 198.956 284.603 199.851 283.956 200.738C283.373 201.679 282.873 202.641 282.51 203.589C281.788 205.492 281.422 207.223 281.208 208.445C280.997 209.669 280.934 210.393 280.934 210.393C280.934 210.393 280.745 209.694 280.618 208.424C280.501 207.16 280.429 205.306 280.872 203.095C281.086 201.988 281.454 200.797 282.037 199.596C282.669 198.43 283.433 197.168 284.605 196.217C285.705 195.192 287.077 194.439 288.67 193.955C289.459 193.68 290.056 193.669 290.765 193.514C291.671 193.351 292.323 193.432 293.117 193.389C293.874 193.345 294.64 193.509 295.402 193.636C296.168 193.723 296.903 193.97 297.627 194.251C298.371 194.462 299.036 194.858 299.68 195.266C300.355 195.618 300.9 196.14 301.46 196.612C303.64 198.594 304.852 201.067 305.529 203.174C306.223 205.295 306.42 207.132 306.492 208.399C306.554 209.674 306.48 210.393 306.48 210.393Z" fill="#29202E"/>
<path d="M165 341.342H75V279.865H165V341.342" fill="#21209C"/>
<path d="M109.955 304.591L99.2461 309.657L109.955 314.647L108.553 318.231L95.7114 311.874V307.475L108.553 301.08L109.955 304.591Z" fill="#FBFDFE"/>
<path d="M125.735 292.874L117.963 325.958L114.26 324.997L122.066 291.951L125.735 292.874Z" fill="#FBFDFE"/>
<path d="M144.318 307.475V311.874L131.476 318.231L130.076 314.647L140.749 309.657L130.076 304.591L131.476 301.08L144.318 307.475Z" fill="#FBFDFE"/>
<path d="M142 157.935H58V110.802H142V157.935" fill="#21209C"/>
<path d="M82.4102 141H78.8945V133.688H72.0391V141H68.5234V123.938H72.0391V130.852H78.8945V123.938H82.4102V141ZM97.9844 126.785H92.7578V141H89.2422V126.785H84.0859V123.938H97.9844V126.785ZM104.594 123.938L108.977 136.312L113.336 123.938H117.953V141H114.426V136.336L114.777 128.285L110.172 141H107.758L103.164 128.297L103.516 136.336V141H100V123.938H104.594ZM124.539 138.176H132.004V141H121.023V123.938H124.539V138.176Z" fill="#F1F1F1"/>
<path d="M444 124.122H375V76.9894H444V124.122Z" fill="#FDB827"/>
<path d="M401.402 91.9375H404.918V103.75C404.918 104.836 404.676 105.797 404.191 106.633C403.715 107.461 403.039 108.102 402.164 108.555C401.289 109.008 400.301 109.234 399.199 109.234C397.395 109.234 395.988 108.777 394.98 107.863C393.973 106.941 393.469 105.641 393.469 103.961H397.008C397.008 104.797 397.184 105.414 397.535 105.812C397.887 106.211 398.441 106.41 399.199 106.41C399.871 106.41 400.406 106.18 400.805 105.719C401.203 105.258 401.402 104.602 401.402 103.75V91.9375ZM416.777 104.523C416.777 103.859 416.543 103.352 416.074 103C415.605 102.641 414.762 102.266 413.543 101.875C412.324 101.477 411.359 101.086 410.648 100.703C408.711 99.6562 407.742 98.2461 407.742 96.4727C407.742 95.5508 408 94.7305 408.516 94.0117C409.039 93.2852 409.785 92.7188 410.754 92.3125C411.73 91.9062 412.824 91.7031 414.035 91.7031C415.254 91.7031 416.34 91.9258 417.293 92.3711C418.246 92.8086 418.984 93.4297 419.508 94.2344C420.039 95.0391 420.305 95.9531 420.305 96.9766H416.789C416.789 96.1953 416.543 95.5898 416.051 95.1602C415.559 94.7227 414.867 94.5039 413.977 94.5039C413.117 94.5039 412.449 94.6875 411.973 95.0547C411.496 95.4141 411.258 95.8906 411.258 96.4844C411.258 97.0391 411.535 97.5039 412.09 97.8789C412.652 98.2539 413.477 98.6055 414.562 98.9336C416.562 99.5352 418.02 100.281 418.934 101.172C419.848 102.062 420.305 103.172 420.305 104.5C420.305 105.977 419.746 107.137 418.629 107.98C417.512 108.816 416.008 109.234 414.117 109.234C412.805 109.234 411.609 108.996 410.531 108.52C409.453 108.035 408.629 107.375 408.059 106.539C407.496 105.703 407.215 104.734 407.215 103.633H410.742C410.742 105.516 411.867 106.457 414.117 106.457C414.953 106.457 415.605 106.289 416.074 105.953C416.543 105.609 416.777 105.133 416.777 104.523Z" fill="black"/>
<path d="M96.4398 243.774H28V196.87H96.4398V243.774Z" fill="#FDB827"/>
<path d="M53.918 220.316C53.7852 222.152 53.1055 223.598 51.8789 224.652C50.6602 225.707 49.0508 226.234 47.0508 226.234C44.8633 226.234 43.1406 225.5 41.8828 224.031C40.6328 222.555 40.0078 220.531 40.0078 217.961V216.918C40.0078 215.277 40.2969 213.832 40.875 212.582C41.4531 211.332 42.2773 210.375 43.3477 209.711C44.4258 209.039 45.6758 208.703 47.0977 208.703C49.0664 208.703 50.6523 209.23 51.8555 210.285C53.0586 211.34 53.7539 212.82 53.9414 214.727H50.4258C50.3398 213.625 50.0312 212.828 49.5 212.336C48.9766 211.836 48.1758 211.586 47.0977 211.586C45.9258 211.586 45.0469 212.008 44.4609 212.852C43.8828 213.688 43.5859 214.988 43.5703 216.754V218.043C43.5703 219.887 43.8477 221.234 44.4023 222.086C44.9648 222.938 45.8477 223.363 47.0508 223.363C48.1367 223.363 48.9453 223.117 49.4766 222.625C50.0156 222.125 50.3242 221.355 50.4023 220.316H53.918ZM65.0742 221.523C65.0742 220.859 64.8398 220.352 64.3711 220C63.9023 219.641 63.0586 219.266 61.8398 218.875C60.6211 218.477 59.6562 218.086 58.9453 217.703C57.0078 216.656 56.0391 215.246 56.0391 213.473C56.0391 212.551 56.2969 211.73 56.8125 211.012C57.3359 210.285 58.082 209.719 59.0508 209.312C60.0273 208.906 61.1211 208.703 62.332 208.703C63.5508 208.703 64.6367 208.926 65.5898 209.371C66.543 209.809 67.2812 210.43 67.8047 211.234C68.3359 212.039 68.6016 212.953 68.6016 213.977H65.0859C65.0859 213.195 64.8398 212.59 64.3477 212.16C63.8555 211.723 63.1641 211.504 62.2734 211.504C61.4141 211.504 60.7461 211.688 60.2695 212.055C59.793 212.414 59.5547 212.891 59.5547 213.484C59.5547 214.039 59.832 214.504 60.3867 214.879C60.9492 215.254 61.7734 215.605 62.8594 215.934C64.8594 216.535 66.3164 217.281 67.2305 218.172C68.1445 219.062 68.6016 220.172 68.6016 221.5C68.6016 222.977 68.043 224.137 66.9258 224.98C65.8086 225.816 64.3047 226.234 62.4141 226.234C61.1016 226.234 59.9062 225.996 58.8281 225.52C57.75 225.035 56.9258 224.375 56.3555 223.539C55.793 222.703 55.5117 221.734 55.5117 220.633H59.0391C59.0391 222.516 60.1641 223.457 62.4141 223.457C63.25 223.457 63.9023 223.289 64.3711 222.953C64.8398 222.609 65.0742 222.133 65.0742 221.523ZM79.8398 221.523C79.8398 220.859 79.6055 220.352 79.1367 220C78.668 219.641 77.8242 219.266 76.6055 218.875C75.3867 218.477 74.4219 218.086 73.7109 217.703C71.7734 216.656 70.8047 215.246 70.8047 213.473C70.8047 212.551 71.0625 211.73 71.5781 211.012C72.1016 210.285 72.8477 209.719 73.8164 209.312C74.793 208.906 75.8867 208.703 77.0977 208.703C78.3164 208.703 79.4023 208.926 80.3555 209.371C81.3086 209.809 82.0469 210.43 82.5703 211.234C83.1016 212.039 83.3672 212.953 83.3672 213.977H79.8516C79.8516 213.195 79.6055 212.59 79.1133 212.16C78.6211 211.723 77.9297 211.504 77.0391 211.504C76.1797 211.504 75.5117 211.688 75.0352 212.055C74.5586 212.414 74.3203 212.891 74.3203 213.484C74.3203 214.039 74.5977 214.504 75.1523 214.879C75.7148 215.254 76.5391 215.605 77.625 215.934C79.625 216.535 81.082 217.281 81.9961 218.172C82.9102 219.062 83.3672 220.172 83.3672 221.5C83.3672 222.977 82.8086 224.137 81.6914 224.98C80.5742 225.816 79.0703 226.234 77.1797 226.234C75.8672 226.234 74.6719 225.996 73.5938 225.52C72.5156 225.035 71.6914 224.375 71.1211 223.539C70.5586 222.703 70.2773 221.734 70.2773 220.633H73.8047C73.8047 222.516 74.9297 223.457 77.1797 223.457C78.0156 223.457 78.668 223.289 79.1367 222.953C79.6055 222.609 79.8398 222.133 79.8398 221.523Z" fill="black"/>
</svg>
