<svg width="100" height="100" viewBox="0 0 100 100" fill="none" xmlns="http://www.w3.org/2000/svg">
<path d="M83.0833 23.2916V76.6249C83.0833 78.486 82.5417 80.1527 81.4583 81.6249C80.375 83.0694 78.9167 84.0416 77.0833 84.5416L53.2083 91.4166C52.875 91.4999 52.5 91.5833 52.0833 91.6666H51.1667C50.25 91.6666 49.4167 91.5416 48.6667 91.2916C47.9167 91.0416 47.1528 90.7083 46.375 90.2916L30.75 81.4583C30.1667 81.1249 29.7083 80.6944 29.375 80.1666C29.0417 79.6388 28.875 79.0416 28.875 78.3749C28.875 77.3749 29.2361 76.5277 29.9583 75.8333C30.6528 75.1388 31.5 74.7916 32.5 74.7916H52.75V25.5833L37.5 30.9999C36.3055 31.4444 35.3333 32.2221 34.5833 33.3333C33.8333 34.3888 33.4583 35.5694 33.4583 36.8749V64.9166C33.4583 66.0833 33.1667 67.1388 32.5833 68.0833C32.0278 69.0277 31.2361 69.7777 30.2083 70.3333L23.0417 74.2499C22.375 74.611 21.7083 74.7916 21.0417 74.7916C19.9028 74.7916 18.9305 74.3888 18.125 73.5833C17.3194 72.7777 16.9167 71.7916 16.9167 70.6249V31.1249C16.9167 29.6805 17.2917 28.3333 18.0417 27.0833C18.8194 25.6944 19.8333 24.6388 21.0833 23.9166L46.75 9.33325C47.3333 8.99992 47.9583 8.74992 48.625 8.58325C49.2917 8.41659 49.9583 8.33325 50.625 8.33325C51.0972 8.33325 51.5278 8.37492 51.9167 8.45825C52.3055 8.51381 52.7361 8.61103 53.2083 8.74992L77.0833 15.3749C78 15.6249 78.8194 15.9999 79.5417 16.4999C80.2639 16.9999 80.8889 17.5971 81.4167 18.2916C81.9722 19.0138 82.3889 19.7916 82.6667 20.6249C82.9444 21.486 83.0833 22.3749 83.0833 23.2916V23.2916ZM77.5833 76.6249V23.2916C77.5833 22.6527 77.4167 22.0971 77.0833 21.6249C76.6667 21.0971 76.1528 20.7777 75.5417 20.6666L63.7917 17.4166C62.9305 17.1666 62.0139 16.9166 61.0417 16.6666C60.125 16.361 59.2222 16.0971 58.3333 15.8749V84.2083L75.5417 79.1666C76.1528 79.0555 76.6667 78.7638 77.0833 78.2916C77.4167 77.8194 77.5833 77.2638 77.5833 76.6249Z" fill="#EEEEEE"/>
</svg>
